<svg width="77" height="95" viewBox="0 0 77 95" fill="none" xmlns="http://www.w3.org/2000/svg">
<path d="M74 57.9999C74 78.4345 57.4345 94.9999 37 94.9999C16.5655 94.9999 0 78.4345 0 57.9999C0 37.5654 16.5655 20.9999 37 20.9999C57.4345 20.9999 74 37.5654 74 57.9999Z" fill="#46A358" fill-opacity="0.13"/>
<path d="M28.1293 46.3569C40.7023 48.0205 53.3918 48.2819 66.0231 47.1368C66.8795 47.0602 66.8885 45.7077 66.0231 45.7843C53.3918 46.9294 40.7023 46.668 28.1293 45.0044C27.2773 44.8917 27.2818 46.2487 28.1293 46.3569Z" fill="#727272"/>
<path d="M31.0304 92.0306C36.4649 92.7249 41.9353 93.063 47.4147 92.9863C52.235 92.9187 57.9251 93.1306 62.4449 91.2236C63.2296 90.89 62.8843 89.5826 62.0862 89.9207C57.4498 91.8773 51.5086 91.6113 46.5493 91.6429C41.3569 91.6789 36.178 91.3363 31.0259 90.6781C30.174 90.5699 30.1785 91.9224 31.0304 92.0306Z" fill="#727272"/>
<path d="M27.6047 45.3155C21.3316 51.1673 18.4081 59.8909 19.0986 68.398C19.4529 72.7937 20.6904 77.0675 22.5513 81.0529C24.2462 84.6866 26.7438 89.8937 30.4923 91.7827C31.2636 92.1704 31.9451 91.0072 31.1694 90.615C27.6809 88.8568 25.3089 83.7939 23.7126 80.3721C21.8563 76.3823 20.6411 72.0498 20.39 67.6452C19.9416 59.706 22.7127 51.7218 28.5598 46.2713C29.1965 45.6807 28.2414 44.7249 27.6047 45.3155Z" fill="#727272"/>
<path d="M65.5478 46.9519C72.1661 51.1221 72.7893 60.1162 72.6279 67.1988C72.4485 75.0973 71.4755 87.6124 62.0862 89.9207C61.2477 90.1281 61.6019 91.431 62.4449 91.2236C72.2468 88.8161 73.6547 76.3957 73.9507 68.0373C74.2242 60.2154 73.5337 50.3873 66.2248 45.7843C65.4895 45.3244 64.8169 46.4921 65.5478 46.9519Z" fill="#727272"/>
<path d="M32.5774 46.3658C27.6405 51.7082 25.4613 60.6301 26.2954 67.7848C26.7796 71.946 28.0889 76.0756 29.0619 80.1376C30.0394 84.2086 31.0483 88.2481 33.2634 91.8412C33.7208 92.5806 34.8821 91.8998 34.4247 91.1604C32.3442 87.7882 31.3757 84.0193 30.4564 80.2007C29.5686 76.5219 28.5328 72.8386 27.8468 69.1193C26.5465 62.0367 28.5822 52.6775 33.528 47.3216C34.1153 46.6814 33.1648 45.7257 32.5774 46.3658Z" fill="#727272"/>
<path d="M39.2405 46.9295C35.5637 53.4395 33.6311 60.8331 33.7297 68.3259C33.7791 71.9235 34.2902 75.5257 35.2677 78.9881C36.4829 83.2845 38.3303 87.36 39.1374 91.7736C39.2943 92.6302 40.5902 92.265 40.4332 91.413C39.7292 87.5493 38.2361 83.9517 37.0479 80.2278C35.8955 76.6122 35.205 72.8838 35.0884 69.0833C34.8552 61.5679 36.7116 54.1428 40.4018 47.6102C40.8323 46.8528 39.671 46.1721 39.2405 46.9295Z" fill="#727272"/>
<path d="M43.2043 48.2234C44.4822 55.7342 42.9308 63.2586 43.0608 70.801C43.1191 74.2454 43.8859 77.4508 44.3343 80.841C44.8006 84.362 44.0024 87.9822 43.5675 91.4761C43.4599 92.3372 44.8051 92.3282 44.9127 91.4761C45.3521 87.9506 46.1458 84.3034 45.6794 80.7509C45.2041 77.1172 44.4015 73.6728 44.397 69.976C44.3881 62.5779 45.7512 55.2338 44.5002 47.8672C44.3522 47.0106 43.0563 47.3713 43.2043 48.2234Z" fill="#727272"/>
<path d="M48.2487 47.5966C50.6118 54.3816 50.8987 61.5408 51.1364 68.6594C51.3965 76.3912 51.0108 84.0012 49.576 91.6113C49.4146 92.4633 50.7104 92.8285 50.8718 91.9719C52.3291 84.2447 52.7461 76.5084 52.4816 68.6594C52.2394 61.4236 51.9435 54.1291 49.5446 47.2359C49.2621 46.4244 47.9618 46.7761 48.2487 47.5966Z" fill="#727272"/>
<path d="M53.9075 47.6283C54.4052 49.1566 55.4813 50.1755 56.3064 51.519C57.248 53.0518 57.7636 54.7875 58.0416 56.5547C58.647 60.4139 58.36 64.4533 58.351 68.344C58.3421 72.5773 58.6649 77.054 57.5753 81.1882C56.6158 84.8173 54.4141 87.9461 53.6788 91.652C53.5084 92.504 54.8042 92.8647 54.9746 92.0126C55.7638 88.0453 58.2031 84.6866 59.064 80.7373C59.9473 76.6979 59.6873 72.4511 59.6962 68.344C59.7052 64.548 59.9339 60.6663 59.4362 56.8929C59.2164 55.2248 58.8398 53.5747 58.1224 52.0509C57.3242 50.3513 55.7862 49.0574 55.2078 47.2721C54.9343 46.4471 53.6339 46.7988 53.9075 47.6283Z" fill="#727272"/>
<path d="M60.4495 47.4163C63.122 49.9409 64.4088 53.9714 65.3729 57.4518C66.3773 61.0765 66.041 64.9446 65.8168 68.6549C65.3639 76.1838 64.0995 83.7037 60.5078 90.412C60.0953 91.1785 61.2566 91.8637 61.6692 91.0928C65.4984 83.9381 66.7764 75.8953 67.2023 67.8705C67.4176 63.831 67.5924 59.8863 66.3325 55.9956C65.2384 52.6189 64.0322 48.9491 61.4001 46.456C60.7724 45.8654 59.8173 46.8212 60.4495 47.4163Z" fill="#727272"/>
<path d="M32.4697 50.7976C32.3307 51.1538 32.1783 51.5054 32.0124 51.8526C31.8016 52.2899 32.0483 52.8895 32.5953 52.8714C32.9854 52.8579 33.2948 52.6821 33.5728 52.4161C33.6625 52.3304 33.7522 52.2403 33.8374 52.1546C33.9495 52.0419 33.8015 52.2222 33.8867 52.1185C33.8687 52.1456 33.7746 52.1366 33.8598 52.1456C33.6445 51.8616 33.4293 51.573 33.2096 51.289C33.1513 51.5911 33.0885 51.8931 33.0302 52.1997C32.9585 52.5559 33.1334 52.93 33.5011 53.0337C33.8329 53.1239 34.2588 52.921 34.3306 52.5604C34.3889 52.2583 34.4517 51.9562 34.5099 51.6497C34.5996 51.1898 34.3171 50.8382 33.8598 50.7931C33.4876 50.757 33.1513 50.9554 32.8868 51.1989C32.7926 51.2845 32.7119 51.3747 32.6177 51.4603C32.5863 51.4874 32.5594 51.5144 32.528 51.5415C32.5415 51.528 32.5549 51.5189 32.5684 51.5054C32.5011 51.5415 32.5011 51.546 32.5774 51.5144C32.5011 51.5325 32.5056 51.537 32.5908 51.5144C32.7836 51.8526 32.9764 52.1907 33.1737 52.5333C33.389 52.0825 33.5863 51.6226 33.7656 51.1583C33.8956 50.8156 33.6221 50.4144 33.2948 50.3242C32.9181 50.2205 32.6043 50.455 32.4697 50.7976Z" fill="#727272"/>
<path d="M29.1382 58.89C29.0754 59.2687 29.0126 59.6474 28.9499 60.0216C28.9005 60.3237 28.9812 60.6212 29.2593 60.7835C29.5059 60.9278 29.878 60.9007 30.0753 60.6798C30.2054 60.5311 30.3354 60.3823 30.4654 60.2335C30.5506 60.1343 30.6717 59.9495 30.7748 59.8954C30.6627 59.927 30.5506 59.9585 30.434 59.9856C30.4565 59.9811 30.4834 59.9811 30.5058 59.9765C30.3937 59.945 30.2816 59.9134 30.165 59.8864C30.1829 59.8999 30.2009 59.9134 30.2188 59.927C30.1067 59.7331 29.9946 59.5392 29.887 59.3409C29.9229 59.7286 29.8153 60.1614 29.7704 60.5536C29.7076 61.1171 30.3758 61.3245 30.7838 61.1397C31.3129 60.8917 31.6671 60.4364 31.8555 59.8909C31.4788 59.9901 31.1066 60.0892 30.73 60.1884C30.7165 60.1028 30.7031 60.0171 30.6896 59.9315C30.4699 60.7745 31.7703 61.1352 31.9855 60.2921C32.0841 59.9089 31.9945 59.4896 31.6806 59.2327C31.277 58.9036 30.7345 59.0208 30.5551 59.5302C30.4744 59.7556 30.3085 59.8729 30.1022 59.972C30.4385 60.1659 30.7748 60.3597 31.1156 60.5581C31.1829 59.954 31.5057 58.881 30.6807 58.6511C29.9856 58.4572 29.4969 59.2868 29.1202 59.7241C29.4969 59.945 29.8691 60.1614 30.2457 60.3823C30.3085 60.0036 30.3713 59.6249 30.434 59.2507C30.4923 58.89 30.3399 58.5204 29.9632 58.4167C29.6449 58.331 29.1965 58.5294 29.1382 58.89Z" fill="#727272"/>
<path d="M28.5597 67.0365C28.6046 67.5685 28.6539 68.1005 28.6988 68.6279C28.766 69.3808 29.7749 69.5567 30.0215 68.8083C30.156 68.3935 30.3444 68.0193 30.582 67.6496C30.174 67.5955 29.7614 67.5414 29.3534 67.4873C29.5103 67.8796 29.618 68.2808 29.6763 68.7046C29.7435 69.1825 30.3219 69.2636 30.6627 69.1103C30.8331 69.0337 30.9721 68.8849 31.0618 68.7226C31.1021 68.6505 31.1335 68.5648 31.1604 68.4882C31.1739 68.4476 31.1829 68.407 31.1963 68.3665C31.2187 68.2988 31.2098 68.3033 31.1784 68.38C31.0797 68.4386 30.9811 68.4972 30.8824 68.5558C30.9048 68.5468 30.9318 68.5423 30.9542 68.5333C30.8331 68.5333 30.7165 68.5333 30.5955 68.5333C30.5865 68.5288 30.5775 68.5243 30.573 68.5152C30.4923 68.4341 30.4116 68.3529 30.3309 68.2718C30.3444 68.2898 30.3533 68.3079 30.3668 68.3259C30.3444 68.1501 30.3219 67.9787 30.2995 67.8029C30.295 67.8255 30.295 67.848 30.2906 67.866C30.2412 68.2267 30.3757 68.5919 30.7614 68.7001C31.0752 68.7857 31.5416 68.5919 31.5909 68.2267C31.6312 67.9337 31.6088 67.6677 31.3936 67.4468C31.2142 67.2664 30.9407 67.1808 30.6896 67.2078C30.4296 67.2394 30.2009 67.3927 30.0619 67.6136C30.0036 67.7082 29.9229 67.839 29.9184 67.9472C29.9139 68.105 29.8466 67.9923 29.9901 67.9292C30.3175 68.0644 30.6493 68.1997 30.9766 68.3349C30.9183 67.9156 30.8107 67.5144 30.6537 67.1177C30.4385 66.5857 29.757 66.4324 29.4251 66.9554C29.1292 67.4197 28.9005 67.9156 28.7301 68.4341C29.1696 68.4927 29.609 68.5558 30.0529 68.6144C30.0081 68.0824 29.9587 67.5505 29.9139 67.023C29.8825 66.6578 29.6269 66.3467 29.2413 66.3467C28.896 66.3603 28.5284 66.6713 28.5597 67.0365Z" fill="#727272"/>
<path d="M30.1785 76.5761C30.2233 77.3561 30.6134 78.0368 31.2905 78.4335C31.7389 78.6905 32.2949 78.3614 32.3038 77.8475C32.3083 77.4507 32.398 77.0856 32.5505 76.7204C32.1738 76.8196 31.8016 76.9187 31.425 77.0179C31.6088 77.2433 31.8061 77.4417 32.0258 77.6266C32.3846 77.9286 33.0392 77.87 33.1513 77.329C33.1782 77.2073 33.2096 77.1036 33.25 76.9909C32.8733 77.0901 32.5011 77.1892 32.1245 77.2884C32.1648 77.2659 32.1873 77.2929 32.1828 77.3651C32.3263 77.7032 32.8195 77.7753 33.102 77.6085C33.4472 77.4056 33.4876 77.0224 33.3441 76.6843C33.2858 76.5491 33.1917 76.4273 33.0751 76.3327C32.6581 76.0036 32.1469 76.1253 31.9496 76.6302C31.9048 76.7429 31.8734 76.8511 31.851 76.9683C32.2276 76.8692 32.5998 76.77 32.9764 76.6708C32.7567 76.486 32.5594 76.2831 32.3756 76.0622C32.0169 75.6203 31.425 75.9495 31.2501 76.3597C31.0528 76.8331 30.9631 77.3335 30.9542 77.8475C31.2905 77.6536 31.6268 77.4597 31.9675 77.2614C31.7075 77.1126 31.5371 76.8782 31.5192 76.5716C31.4743 75.715 30.1291 75.706 30.1785 76.5761Z" fill="#727272"/>
<path d="M32.9495 85.8497C33.1065 86.2554 33.2948 86.6296 33.5504 86.9857C33.9495 87.5358 34.7431 87.3329 34.8059 86.6431C34.8104 86.6025 34.8821 86.1021 34.8552 86.0796C34.6624 86.2013 34.4741 86.323 34.2813 86.4447C34.3261 86.5079 34.3665 86.5665 34.4158 86.6251C34.5862 86.8415 34.7969 87.0263 35.0704 87.103C35.2812 87.1571 35.5278 87.13 35.7116 87.0128C35.8327 86.9316 35.9179 86.837 35.9807 86.7062C36.0031 86.6521 36.0255 86.598 36.0479 86.5439C36.1511 86.2193 35.9538 86.1652 35.4605 86.3816C35.7296 87.2021 37.0299 86.8505 36.7564 86.021C36.5681 85.4529 36.021 85.0832 35.4247 85.3087C35.1825 85.4033 34.9718 85.5837 34.8552 85.8181C34.8193 85.8902 34.6893 86.2013 34.7341 86.2915C34.9942 86.1427 35.2498 85.9894 35.5099 85.8406C35.474 85.7955 35.4381 85.755 35.4067 85.7099C35.1915 85.2726 34.5682 85.0246 34.1198 85.1869C33.4876 85.4123 33.5145 86.0886 33.4652 86.6476C33.8822 86.5349 34.2992 86.4222 34.7207 86.305C34.5368 86.0525 34.3709 85.7865 34.2544 85.4935C33.9315 84.691 32.6312 85.0382 32.9495 85.8497Z" fill="#727272"/>
<path d="M40.1373 50.9824C39.653 51.3476 39.2495 51.7804 38.9849 52.3349C38.6397 53.0562 39.4423 53.6243 40.0431 53.1554C40.1866 53.0427 40.3301 52.93 40.4736 52.8173C40.5364 52.7677 40.5991 52.7181 40.6664 52.6685C40.6978 52.6415 40.7292 52.6189 40.7606 52.5919C40.8727 52.5107 40.8144 52.5242 40.5857 52.6279C40.4736 52.5964 40.3615 52.5648 40.2449 52.5378C40.2584 52.5468 40.2718 52.5558 40.2853 52.5648C40.2045 52.4837 40.1238 52.4025 40.0431 52.3214C40.0297 52.2628 40.0117 52.2087 39.9983 52.15C40.0028 52.0869 40.0028 52.0779 39.9893 52.132C39.9579 52.1546 39.949 52.3078 39.949 52.3304C39.9176 52.5378 39.9355 52.7406 40.0431 52.93C40.1418 53.1013 40.3166 53.2546 40.5095 53.3042C40.5902 53.3267 40.6933 53.3357 40.7785 53.3357C40.8592 53.3357 40.9309 53.3222 41.0027 53.2952C41.0969 53.2681 41.0655 53.2591 40.904 53.2681C40.8054 53.2095 40.7067 53.1509 40.6081 53.0923C40.6216 53.1058 40.635 53.1193 40.6485 53.1329C40.5902 53.0337 40.5319 52.9345 40.4736 52.8353C40.4781 52.8488 40.4825 52.8669 40.487 52.8804C40.5095 52.7046 40.5319 52.5333 40.5543 52.3574C40.5453 52.371 40.5408 52.3845 40.5319 52.398C40.1238 53.1644 41.2852 53.8497 41.6932 53.0788C41.8681 52.7542 41.8277 52.389 41.5542 52.132C41.4107 51.9968 41.2179 51.9156 41.0206 51.9111C40.9085 51.9066 40.7785 51.9787 40.6798 51.9697C40.7919 52.0013 40.904 52.0328 41.0206 52.0599C41.0027 52.0464 40.9848 52.0328 40.9713 52.0238C41.052 52.105 41.1327 52.1861 41.2134 52.2673C41.2045 52.2492 41.1955 52.2312 41.1865 52.2132C41.2179 52.3259 41.2493 52.4386 41.2762 52.5558C41.2672 52.4701 41.2807 52.5152 41.3121 52.389C41.348 52.2312 41.3524 52.0599 41.3166 51.8976C41.2403 51.573 40.9982 51.3385 40.6754 51.2799C40.3391 51.2168 40.1104 51.3926 39.8548 51.591C39.5992 51.7894 39.3436 51.9923 39.088 52.1906C39.4423 52.4656 39.792 52.7361 40.1463 53.0111C40.3077 52.6775 40.5139 52.371 40.8144 52.1455C41.1058 51.9291 41.2538 51.5595 41.0565 51.2213C40.8906 50.9373 40.4332 50.766 40.1373 50.9824Z" fill="#727272"/>
<path d="M37.5052 58.5924C37.3931 59.1334 37.2855 59.6744 37.1734 60.2199C37.0344 60.9097 37.7787 61.3064 38.2989 60.8781C38.4513 60.7519 38.5858 60.5941 38.6845 60.4228C38.7517 60.3056 38.8325 60.0667 38.8683 60.008C38.7876 60.0892 38.7069 60.1703 38.6262 60.2515C38.6486 60.238 38.6665 60.2244 38.689 60.2064C38.5769 60.238 38.4648 60.2695 38.3482 60.2966C38.3751 60.2921 38.402 60.2921 38.4289 60.2876C38.3168 60.256 38.2047 60.2244 38.0881 60.1974C37.9805 60.1478 37.976 59.972 38.0074 60.2019C38.0164 60.2605 38.0298 60.3101 38.0478 60.3642C38.1105 60.5671 38.2226 60.7474 38.393 60.8736C38.55 60.9909 38.7338 61.054 38.9311 61.0495C39.0522 61.045 39.1643 61.0134 39.2719 60.9593C39.3302 60.9368 39.3795 60.9052 39.4243 60.8646C39.5409 60.7835 39.5095 60.788 39.3347 60.8691C39.2226 60.8376 39.1105 60.806 38.9939 60.779C39.0118 60.788 39.0163 60.797 39.0297 60.8331C39.3167 61.6491 40.6171 61.2974 40.3256 60.4724C40.2001 60.1162 40.0162 59.7871 39.6709 59.6113C39.4916 59.5166 39.2674 59.4896 39.0701 59.5347C38.8728 59.5798 38.7562 59.7105 38.5858 59.7916C38.6979 59.7601 38.81 59.7285 38.9266 59.7015C38.9042 59.7015 38.8773 59.7015 38.8549 59.7015C38.967 59.733 39.0791 59.7646 39.1957 59.7916C39.3167 60.0035 39.3526 60.0351 39.3033 59.8863C39.2943 59.8277 39.2853 59.7691 39.2764 59.7105C39.245 59.5933 39.1957 59.4716 39.1329 59.3724C38.967 59.1109 38.6935 58.9396 38.3841 58.9441C38.0792 58.9486 37.8011 59.1244 37.6577 59.3904C37.5366 59.6158 37.5456 59.7511 37.3393 59.9224C37.716 60.1433 38.0881 60.3597 38.4648 60.5806C38.5769 60.0396 38.6845 59.4986 38.7966 58.9576C38.9759 58.101 37.6801 57.7404 37.5052 58.5924Z" fill="#727272"/>
<path d="M36.9851 65.5037C36.8461 66.2296 36.7564 66.9599 36.734 67.6948C36.716 68.2087 37.3169 68.5333 37.7473 68.2809C37.9446 68.1637 38.0881 68.0059 38.1957 67.803C38.2361 67.7263 38.3527 67.5505 38.3303 67.4829C38.3258 67.4739 38.2854 67.5325 38.3034 67.5235C38.1913 67.555 38.0792 67.5866 37.9626 67.6136C37.9536 67.6181 37.9402 67.6181 37.9312 67.6227C37.8505 67.5415 37.7698 67.4604 37.6891 67.3792C37.7653 67.4784 37.7563 67.4694 37.7653 67.5731C37.8146 68.1276 38.4782 68.4973 38.9132 68.0509C38.9625 67.9968 39.0118 67.9473 39.0656 67.8977C38.9715 67.9427 38.8728 67.9337 38.7787 67.8796C38.7204 67.7804 38.6621 67.6813 38.6038 67.5821C38.6127 67.6091 38.6217 67.6362 38.6352 67.6632C38.7607 68.0059 39.0925 68.2403 39.4647 68.1366C39.792 68.0464 40.0611 67.6497 39.9355 67.3026C39.5858 66.3468 38.5679 66.4685 37.9626 67.0952C38.3437 67.253 38.7293 67.4153 39.1105 67.5731C39.0567 66.9194 38.7338 66.2115 37.9626 66.2611C37.6487 66.2792 37.3707 66.464 37.2048 66.73C37.1465 66.8247 37.1061 66.9329 37.0613 67.0366C37.012 67.1493 36.9268 67.1899 37.0658 67.1087C37.4021 67.3026 37.7384 67.4964 38.0792 67.6948C38.0971 67.0771 38.1644 66.4685 38.2809 65.8599C38.4468 65.0123 37.151 64.6517 36.9851 65.5037Z" fill="#727272"/>
<path d="M37.6532 73.2265C37.8056 73.8306 37.9895 74.4212 38.2047 75.0027C38.3796 75.4761 38.9401 75.6745 39.3302 75.3003C39.5006 75.1335 39.6172 74.9396 39.6754 74.7052C39.6979 74.6105 39.7158 74.4978 39.7203 74.4031C39.7337 74.1146 39.7023 74.3535 39.7293 74.34C39.6172 74.3716 39.5051 74.4031 39.3885 74.4302C39.4199 74.4302 39.4468 74.4257 39.4781 74.4257C39.3661 74.3941 39.254 74.3626 39.1374 74.3355C39.0477 74.2949 39.0746 74.2544 39.1463 74.3806C39.1822 74.4437 39.2136 74.4978 39.2584 74.5564C39.3974 74.7368 39.5678 74.8585 39.7965 74.89C39.9983 74.9171 40.1911 74.8675 40.3615 74.7503C40.4557 74.6826 40.5408 74.606 40.6036 74.5068C40.6305 74.4527 40.6574 74.3986 40.6798 74.3445C40.7695 74.1687 40.6933 74.2138 40.4512 74.4843C40.3301 74.4843 40.2135 74.4843 40.0925 74.4843C40.0386 74.4392 39.9893 74.3896 39.9355 74.3445C39.9041 74.2318 39.8727 74.1191 39.8458 74.0019C39.8458 74.0289 39.8458 74.056 39.8458 74.083C39.8324 74.9532 41.1776 74.9532 41.191 74.083C41.2 73.6277 40.8861 73.2715 40.4512 73.1814C40.218 73.1318 39.9848 73.1814 39.792 73.3211C39.6979 73.3888 39.6216 73.4654 39.5589 73.5601C39.5454 73.5871 39.532 73.6187 39.514 73.6457C39.3974 73.8712 39.4288 73.8667 39.6127 73.6322C39.7248 73.6007 39.8369 73.5691 39.9534 73.5421C39.931 73.5466 39.9086 73.5466 39.8862 73.5511C39.9983 73.5826 40.1104 73.6142 40.227 73.6412C40.4198 73.7359 40.3211 73.7044 40.2494 73.5781C40.1956 73.4789 40.1238 73.3843 40.0431 73.3121C39.7875 73.0822 39.4512 73.0236 39.1329 73.1363C38.8773 73.2265 38.6845 73.4248 38.5545 73.6548C38.4827 73.7855 38.4468 73.9162 38.4199 74.0605C38.4065 74.1236 38.4199 74.304 38.3796 74.3445C38.7562 74.4437 39.1284 74.5429 39.5051 74.6421C39.2898 74.0605 39.106 73.4654 38.9535 72.8658C38.7338 72.0273 37.438 72.3834 37.6532 73.2265Z" fill="#727272"/>
<path d="M38.3303 79.6869C38.5724 80.4037 38.8818 81.0935 39.2629 81.7427C39.5364 82.207 40.1418 82.1529 40.4243 81.7427C40.5005 81.63 40.5543 81.5128 40.5902 81.382C40.5946 81.3414 40.5991 81.3054 40.6081 81.2648C40.6798 81.0033 40.6171 81.0123 40.4108 81.2964C40.2897 81.2964 40.1732 81.2964 40.0521 81.2964C39.8638 81.2378 39.949 81.2513 40.0476 81.3595C40.1194 81.4361 40.209 81.5173 40.3032 81.5714C40.496 81.6796 40.7247 81.7201 40.9444 81.7021C41.4466 81.666 41.7919 81.3324 41.9578 80.8771C42.2582 80.0611 40.9578 79.7049 40.6619 80.5164C40.7471 80.291 40.9578 80.4172 40.922 80.309C40.8951 80.2324 40.7381 80.1287 40.6664 80.0881C40.4467 79.9619 40.1821 79.9348 39.9445 80.016C39.7248 80.0881 39.5499 80.2549 39.4378 80.4578C39.3391 80.6381 39.366 80.9086 39.2584 81.0619C39.6441 81.0619 40.0342 81.0619 40.4198 81.0619C40.0924 80.5074 39.8279 79.9394 39.6216 79.3307C39.3526 78.5102 38.0523 78.8619 38.3303 79.6869Z" fill="#727272"/>
<path d="M40.1014 87.4006C40.1059 87.7748 40.1597 88.149 40.2763 88.5006C40.3615 88.7576 40.5633 88.9469 40.8368 88.983C41.0834 89.0146 41.3928 88.9019 41.5049 88.6584C41.5811 88.4961 41.6573 88.3338 41.7336 88.176C41.7694 88.0994 41.8053 88.0272 41.8367 87.9506C41.8546 87.9145 41.8726 87.874 41.8905 87.8379C41.9264 87.7703 41.9264 87.7703 41.8905 87.8379C41.7919 87.8965 41.6932 87.9551 41.5946 88.0137C41.608 88.0092 41.626 88.0002 41.6394 87.9957C41.5183 87.9957 41.4018 87.9957 41.2807 87.9957C41.2583 87.9867 41.2314 87.9732 41.2089 87.9641C41.1282 87.883 41.0475 87.8018 40.9668 87.7207C40.8996 87.608 40.9623 87.7027 40.9892 87.7793C41.0117 87.8514 41.0386 87.9191 41.061 87.9912C41.1103 88.1309 41.1596 88.2752 41.2045 88.415C41.321 88.7621 41.6663 88.9875 42.034 88.8883C42.3658 88.7982 42.6214 88.4014 42.5048 88.0543C42.312 87.4953 42.1506 86.5756 41.3704 86.6793C40.765 86.7604 40.5633 87.4998 40.3391 87.9777C40.7471 88.0318 41.1596 88.0859 41.5677 88.14C41.4825 87.874 41.4421 87.6576 41.4376 87.3961C41.4331 87.0444 41.1327 86.7018 40.765 86.7198C40.4108 86.7379 40.0969 87.0219 40.1014 87.4006Z" fill="#727272"/>
<path d="M46.2803 88.221C46.2444 88.5276 46.2085 88.8387 46.1727 89.1452C46.1368 89.4338 46.4058 89.7268 46.6659 89.799C46.9708 89.8846 47.2533 89.7358 47.4237 89.4879C47.5447 89.3121 47.6658 89.1407 47.7869 88.9649C47.8407 88.8838 47.899 88.8071 47.9528 88.726C47.9752 88.6944 47.9976 88.6629 48.02 88.6313C48.1187 88.4961 48.1052 88.5051 47.9842 88.6583C47.8721 88.6899 47.76 88.7215 47.6434 88.7485C47.6658 88.7485 47.6837 88.7485 47.7062 88.7485C47.5941 88.717 47.482 88.6854 47.3654 88.6583C47.2309 88.4239 47.186 88.3788 47.2309 88.5231C47.2443 88.5772 47.2533 88.6358 47.2667 88.6899C47.2892 88.8026 47.3116 88.9108 47.3385 89.0235C47.3878 89.258 47.4102 89.533 47.5313 89.7449C47.6479 89.9432 47.8407 90.1145 48.0649 90.1777C48.4101 90.2723 48.6926 90.0965 48.8944 89.826C49.1141 89.533 48.9393 89.0686 48.6523 88.9018C48.307 88.6989 47.9528 88.8522 47.7331 89.1452C47.7241 89.1588 47.7151 89.1723 47.7062 89.1813C47.899 89.0686 48.0918 88.9559 48.2891 88.8477C48.2756 88.8477 48.2622 88.8522 48.2487 88.8522C48.3608 88.8838 48.4729 88.9153 48.5895 88.9424C48.7061 89.001 48.7778 89.3301 48.7106 88.9965C48.6926 88.9018 48.6702 88.8116 48.6523 88.717C48.6164 88.5502 48.585 88.3833 48.5491 88.2165C48.4684 87.8649 48.2577 87.5223 47.89 87.4186C47.482 87.3059 47.1591 87.5403 46.9304 87.8469C46.7018 88.1579 46.4865 88.478 46.2668 88.7936C46.6838 88.9063 47.1008 89.019 47.5223 89.1362C47.5582 88.8297 47.5941 88.5186 47.6299 88.212C47.6703 87.8469 47.2892 87.5358 46.9573 87.5358C46.5583 87.5448 46.3251 87.8604 46.2803 88.221Z" fill="#727272"/>
<path d="M46.926 75.8728C46.7601 76.5941 46.6794 77.3335 46.6928 78.0729C46.7018 78.7085 47.6344 79.0376 47.9483 78.4155C48.0828 78.145 48.2173 77.879 48.3519 77.6085C48.4505 77.4101 48.5223 77.1622 48.7016 77.0224C48.603 77.081 48.5043 77.1396 48.4057 77.1982C48.4057 77.1937 48.4057 77.1892 48.4102 77.1847C48.1949 77.0179 47.9797 76.8556 47.76 76.6888C47.8452 77.0089 47.9304 77.329 48.0156 77.6491C48.1232 78.0503 48.6388 78.2938 49.002 78.0548C49.0648 78.0143 49.1276 77.9692 49.1904 77.9286C49.9078 77.4507 49.2352 76.2786 48.5133 76.7609C48.4505 76.8015 48.3877 76.8466 48.325 76.8872C48.6523 77.0224 48.9841 77.1577 49.3114 77.2929C49.2262 76.9728 49.141 76.6527 49.0558 76.3327C48.9796 76.0486 48.7016 75.8322 48.4057 75.8367C47.4596 75.8548 47.1367 77.036 46.787 77.7393C47.204 77.852 47.621 77.9647 48.0425 78.0819C48.0335 77.4552 48.0873 76.8511 48.2263 76.238C48.4146 75.3859 47.1188 75.0252 46.926 75.8728Z" fill="#727272"/>
<path d="M45.6436 65.7561C45.6749 66.2881 45.7019 66.8156 45.7332 67.3475C45.7691 68.0148 46.6211 68.2718 46.9887 67.6902C47.2488 67.2754 47.5089 66.8652 47.769 66.4504C47.3833 66.4504 46.9932 66.4504 46.6076 66.4504C46.7018 66.6127 46.7601 66.7615 46.769 66.9508C46.8004 67.5459 47.4775 67.8299 47.9169 67.4287C48.2577 67.1221 48.4774 66.7525 48.6433 66.3242C48.316 66.4594 47.9842 66.5947 47.6569 66.7299C47.6569 66.7389 47.6569 66.7479 47.6524 66.7525C47.5941 66.6533 47.5358 66.5541 47.4775 66.4549C47.4909 66.482 47.4999 66.5135 47.5134 66.5406C47.6524 66.8787 47.9573 67.1176 48.3429 67.0139C48.6568 66.9283 48.9527 66.5225 48.8137 66.1799C48.6971 65.9049 48.5761 65.7381 48.3339 65.5577C47.9528 65.2737 47.4865 65.5983 47.3475 65.9635C47.2668 66.1709 47.1277 66.3242 46.9663 66.4729C47.3475 66.6307 47.7331 66.793 48.1142 66.9508C48.0918 66.527 47.9842 66.1348 47.769 65.7696C47.5044 65.3233 46.8766 65.3413 46.6076 65.7696C46.3475 66.1844 46.0875 66.5947 45.8274 67.0094C46.2444 67.1221 46.6614 67.2348 47.0829 67.3521C47.0515 66.8201 47.0246 66.2926 46.9932 65.7606C46.9394 64.8905 45.5942 64.886 45.6436 65.7561Z" fill="#727272"/>
<path d="M46.0068 56.8162C45.9664 57.1588 45.9485 57.5014 45.9574 57.8441C45.9709 58.3129 46.5359 58.7457 46.9708 58.4301C47.195 58.2678 47.334 58.083 47.4102 57.817C47.4282 57.7539 47.4461 57.6818 47.4551 57.6186C47.464 57.56 47.4999 57.5555 47.4506 57.6006C47.2174 57.817 46.9708 58.1281 46.5986 57.6772C46.639 57.7268 46.6255 57.7223 46.5986 57.6637C46.63 57.7313 46.6524 57.808 46.6838 57.8756C46.7376 57.9928 46.8184 58.0965 46.908 58.1867C47.186 58.4617 47.5986 58.5158 47.9349 58.3219C48.2532 58.1416 48.3563 57.7088 48.177 57.3977C47.9887 57.0776 47.5761 56.974 47.2578 57.1543C47.2443 57.1633 47.2264 57.1723 47.2129 57.1813C47.325 57.1498 47.4371 57.1182 47.5537 57.0912C47.5896 57.0867 47.9124 57.267 47.8855 57.276C47.9035 57.3121 47.9035 57.3121 47.89 57.2805C47.8766 57.2445 47.8631 57.2084 47.8452 57.1723C47.7914 57.0416 47.7286 56.9199 47.6299 56.8117C47.4102 56.5817 47.0695 56.469 46.7601 56.5682C46.4686 56.6584 46.2758 56.8928 46.1816 57.1768C46.1592 57.2399 46.1502 57.3031 46.1323 57.3707C46.1233 57.4022 46.1144 57.4293 46.1099 57.4608C46.092 57.5195 46.092 57.5195 46.1144 57.4608C46.1413 57.3752 46.1996 57.3076 46.2892 57.2625C46.6255 57.4563 46.9618 57.6502 47.3026 57.8486C47.2936 57.5059 47.3116 57.1633 47.3519 56.8207C47.3968 56.469 47.0112 56.1309 46.6793 56.1444C46.2803 56.1625 46.0561 56.442 46.0068 56.8162Z" fill="#727272"/>
<path d="M45.5942 49.8823C45.4687 50.3782 45.5315 50.8877 45.796 51.325C46.1099 51.857 46.8318 51.6947 47.0246 51.1627C47.0964 50.9643 46.9887 51.2844 47.056 51.0815C47.0829 51.0049 47.1053 51.041 47.0381 51.0725C46.8318 51.1807 46.5538 51.1086 46.491 50.8381C46.5762 51.1942 46.9753 51.4061 47.3205 51.3115C47.6793 51.2123 47.8766 50.8381 47.7914 50.4774C47.6703 49.9635 47.1143 49.6885 46.6166 49.8057C46.1278 49.9274 45.8902 50.3557 45.7288 50.7975C46.1368 50.7434 46.5493 50.6893 46.9573 50.6352C46.8901 50.518 46.8811 50.527 46.8677 50.3872C46.8766 50.4594 46.8722 50.3692 46.8722 50.3467C46.8811 50.1483 46.8453 50.4278 46.8901 50.234C46.9753 49.8913 46.778 49.4856 46.4193 49.3999C46.074 49.3278 45.6884 49.5126 45.5942 49.8823Z" fill="#727272"/>
<path d="M26.3671 48.2865C26.1698 48.548 25.9905 48.823 25.8335 49.1115C25.569 49.5849 26.0174 50.3242 26.5913 50.1033C26.7976 50.0267 26.9993 49.9455 27.2056 49.8689C26.9321 49.7111 26.6541 49.5533 26.3761 49.3955C26.4119 49.4992 26.4299 49.5668 26.4254 49.6705C26.4209 50.0132 26.7393 50.3783 27.098 50.3468C27.4343 50.3197 27.7213 50.2386 28.0217 50.0943C28.349 49.9365 28.4342 49.4631 28.2638 49.1701C28.0665 48.832 27.6719 48.7689 27.3446 48.9267C27.2773 48.9582 27.1518 48.9898 27.098 48.9943C27.3222 49.2197 27.5464 49.4451 27.7706 49.6705C27.7751 49.4541 27.7437 49.2377 27.6719 49.0349C27.5598 48.7148 27.2056 48.4262 26.8424 48.5615C26.6361 48.6381 26.4344 48.7193 26.2281 48.7959C26.4792 49.125 26.7348 49.4586 26.9859 49.7877C27.1473 49.4992 27.3222 49.2242 27.5195 48.9627C27.7392 48.6697 27.5643 48.2053 27.2773 48.0385C26.941 47.8447 26.5868 47.9934 26.3671 48.2865Z" fill="#727272"/>
<path d="M22.5603 55.8785C22.3047 56.442 22.085 57.0191 21.9056 57.6142C21.7935 57.9839 22.0401 58.3265 22.3764 58.4482C22.6634 58.5519 22.9728 58.4888 23.2239 58.3265C23.3315 58.2544 23.4032 58.1822 23.4839 58.0876C23.7933 57.7179 23.3674 58.1958 23.1163 57.8847C23.058 57.7855 22.9997 57.6863 22.9414 57.5871C22.9055 57.4609 22.9324 57.7224 22.9324 57.7179C22.9459 57.8216 22.9728 57.9298 23.0266 58.0244C23.1297 58.2003 23.318 58.3445 23.5108 58.3986C23.874 58.4978 24.3404 58.3581 24.4973 57.9884C24.6408 57.6548 24.596 57.2625 24.2552 57.0642C23.9727 56.8974 23.4795 56.9695 23.336 57.3076C23.3494 57.2896 23.3629 57.2715 23.3808 57.258C23.4795 57.1994 23.5781 57.1408 23.6768 57.0822C23.8113 57.1228 23.9458 57.1633 24.0803 57.2039C24.1386 57.3031 24.1969 57.4023 24.2552 57.5015C24.2911 57.6277 24.2641 57.3166 24.2552 57.2851C24.2193 57.1498 24.1565 57.0281 24.0669 56.9289C23.9009 56.7531 23.6857 56.6494 23.4436 56.6359C23.2239 56.6269 23.0221 56.69 22.8427 56.8162C22.7575 56.8748 22.6858 56.9424 22.6185 57.0236C22.3405 57.3482 22.5333 57.0732 22.7396 57.1453C22.8965 57.4248 23.0535 57.6998 23.2104 57.9794C23.3539 57.497 23.5243 57.0281 23.7306 56.5683C23.8785 56.2346 23.8247 55.8424 23.4884 55.6441C23.1925 55.4682 22.7082 55.5449 22.5603 55.8785Z" fill="#727272"/>
<path d="M21.0716 63.8536C20.9281 64.6291 20.9281 65.382 21.0805 66.1574C21.1568 66.5406 21.5693 66.6849 21.9101 66.6308C22.1074 66.5992 22.2912 66.4865 22.4302 66.3377C22.4885 66.2746 22.5423 66.198 22.5916 66.1258C22.6185 66.0853 22.641 66.0447 22.6634 65.9996C22.7037 65.9365 22.6903 65.941 22.6141 66.0041C22.493 66.0041 22.3764 66.0041 22.2553 66.0041C22.2867 66.0131 22.3181 66.0221 22.3495 66.0312C22.2509 65.9726 22.1522 65.9139 22.0536 65.8553C22.0042 65.7516 21.9998 65.7562 22.0446 65.8689C22.067 65.923 22.0894 65.9771 22.1119 66.0312C22.1836 66.1664 22.2822 66.2746 22.4078 66.3558C22.7082 66.5586 22.9817 66.5451 23.3046 66.3963C23.6364 66.2476 23.7171 65.7607 23.5467 65.4721C23.3494 65.1295 22.9593 65.0799 22.6275 65.2287C22.6051 65.2377 22.5782 65.2512 22.5558 65.2602C22.7306 65.2377 22.901 65.2152 23.0759 65.1926C23.049 65.1836 23.0221 65.1791 22.9952 65.1701C23.0938 65.2287 23.1925 65.2873 23.2911 65.3459C23.318 65.4361 23.318 65.4451 23.2956 65.3774C23.2732 65.3053 23.2463 65.2377 23.2149 65.1746C23.1745 65.0979 23.1297 65.0213 23.0669 64.9582C22.8786 64.7553 22.6185 64.6606 22.345 64.6877C22.1074 64.7102 21.8966 64.8274 21.7307 64.9987C21.65 65.0799 21.5827 65.1746 21.5245 65.2738C21.511 65.3008 21.4931 65.3279 21.4796 65.3549C21.3944 65.4811 21.4168 65.4676 21.5514 65.3188C21.8249 65.4766 22.1029 65.6344 22.3809 65.7922C22.2778 65.2692 22.2733 64.7328 22.3719 64.2098C22.4392 63.8491 22.2733 63.4795 21.9011 63.3758C21.5693 63.2901 21.1388 63.493 21.0716 63.8536Z" fill="#727272"/>
<path d="M22.0311 73.6141C22.2195 73.9928 22.4033 74.3715 22.5916 74.7502C22.7575 75.0838 23.2104 75.1605 23.5108 74.9936C23.753 74.8584 23.9189 74.642 23.9951 74.3715C24.031 74.2498 24.0534 74.0965 24.0399 73.9703C24.0265 73.826 24.0893 73.8666 24.013 73.9342C23.9144 73.9928 23.8158 74.0514 23.7171 74.11C23.7081 74.1145 23.6992 74.1145 23.6902 74.119C23.5781 74.0875 23.466 74.0559 23.3494 74.0289C23.5826 74.1641 23.6947 74.3805 24.0355 74.3805C24.439 74.3805 24.5287 74.1416 24.7708 73.9026C24.6722 73.9612 24.5735 74.0199 24.4749 74.0785C24.3449 73.9973 24.2148 73.9162 24.0848 73.8305C24.1386 74.1912 24.5915 74.3895 24.9143 74.3039C25.2999 74.1957 25.4389 73.835 25.3851 73.4698C25.3224 73.0641 24.9412 72.762 24.5466 72.7215C24.0848 72.6764 23.7844 72.9288 23.5647 73.3075C23.6454 73.2264 23.7261 73.1452 23.8068 73.0641C23.7844 73.0821 23.7575 73.1002 23.735 73.1182C23.8471 73.0866 23.9592 73.0551 24.0758 73.028C24.0534 73.028 24.0265 73.028 24.0041 73.028C24.1162 73.0596 24.2283 73.0911 24.3449 73.1182C24.2641 73.0731 24.0534 72.8432 23.874 72.7936C23.6185 72.7215 23.3494 72.7756 23.1387 72.9333C22.9504 73.0731 22.8203 73.2805 22.7531 73.5014C22.7082 73.6412 22.7575 73.9252 22.6858 74.0244C22.7665 73.9432 22.8472 73.8621 22.9279 73.7809C22.901 73.7944 22.8741 73.8125 22.8427 73.826C23.1476 73.9071 23.457 73.9883 23.7619 74.0694C23.5736 73.6907 23.3898 73.312 23.2015 72.9333C22.8069 72.1489 21.6455 72.8342 22.0311 73.6141Z" fill="#727272"/>
<path d="M26.1833 83.6586C26.1608 84.2402 26.7617 84.5693 27.2684 84.4115C27.5105 84.3349 27.6854 84.1636 27.802 83.9472C27.8199 83.9111 27.8378 83.8705 27.8558 83.8345C27.9544 83.6767 27.8558 83.7218 27.5509 83.9787C27.4119 83.9607 27.4746 83.9607 27.5733 84.0148C27.8916 84.1906 28.3087 84.0914 28.4925 83.7713C28.6719 83.4603 28.5687 83.023 28.2504 82.8471C27.9186 82.6623 27.5419 82.5541 27.1742 82.7074C26.9859 82.7885 26.829 82.9238 26.7213 83.1041C26.69 83.1537 26.6586 83.2123 26.6406 83.2709C26.6317 83.289 26.6227 83.307 26.6137 83.325C26.8469 83.0635 27.089 83.041 27.3446 83.2574C27.4029 83.3566 27.4612 83.4558 27.5195 83.5549C27.524 83.591 27.5285 83.6271 27.5329 83.6632C27.5464 83.307 27.2146 82.9689 26.8603 82.9869C26.4792 83.0004 26.1967 83.2799 26.1833 83.6586Z" fill="#727272"/>
<path d="M51.0378 50.1574C51.1185 50.5632 51.2575 50.9419 51.4323 51.3161C51.5982 51.6632 52.0511 51.7083 52.3515 51.5595C52.5219 51.4738 52.6609 51.3206 52.7506 51.1538C52.7775 51.1042 52.7955 51.0501 52.8224 50.996C52.9658 50.6849 52.8179 51.1538 52.4726 51.1177C52.3605 51.0861 52.2484 51.0546 52.1318 51.0275C52.0556 50.9915 52.2439 51.1132 52.2439 51.1132C52.3157 51.1673 52.365 51.1988 52.4502 51.2349C52.6251 51.3115 52.8044 51.3251 52.9927 51.298C53.3963 51.2304 53.634 50.9689 53.7864 50.6037C53.9254 50.2656 53.6339 49.8599 53.3156 49.7697C52.93 49.6615 52.6295 49.9049 52.4861 50.2431C52.643 49.95 52.8403 49.8869 53.0735 50.0537C53.0555 50.0357 53.0376 50.0177 53.0152 50.0041C52.93 49.9185 52.7686 49.8283 52.652 49.7967C52.4367 49.7381 52.2036 49.7742 52.0152 49.8869C51.8583 49.9816 51.7462 50.1304 51.67 50.2927C51.6521 50.3332 51.6296 50.3783 51.6117 50.4234C51.5624 50.5677 51.5893 50.4324 51.67 50.3964C51.9749 50.4775 52.2843 50.5587 52.5892 50.6398C52.4636 50.3738 52.3874 50.0943 52.3291 49.8058C52.2619 49.4451 51.8314 49.2422 51.4996 49.3324C51.1364 49.4271 50.9705 49.7967 51.0378 50.1574Z" fill="#727272"/>
<path d="M52.5981 57.8981C52.6833 58.3264 52.773 58.7547 52.8582 59.183C53.0017 59.8908 53.9478 59.76 54.1541 59.183C54.2213 58.9891 54.3379 58.8629 54.4859 58.7276C54.1317 58.6826 53.7819 58.6375 53.4277 58.5924C53.5443 58.8629 53.6653 59.1379 53.7819 59.4084C53.9164 59.7195 54.4366 59.8547 54.7011 59.6518C54.8625 59.5301 54.9926 59.4219 55.0957 59.2416C55.1316 59.1785 55.1719 59.1018 55.1943 59.0297C55.2033 58.9981 55.2168 58.9666 55.2347 58.9395C55.3423 58.7412 55.1361 58.678 54.6114 58.7502C54.5621 59.1108 54.9567 59.4264 55.284 59.4264C55.6876 59.4264 55.9073 59.1154 55.9566 58.7502C56.0328 58.1866 55.5082 57.6772 54.9657 57.6772C54.6921 57.6772 54.4455 57.7989 54.2617 57.9928C54.1765 58.0829 54.1182 58.1821 54.0599 58.2903C54.024 58.3625 53.885 58.5879 54.024 58.4842C54.3289 58.5653 54.6383 58.6465 54.9432 58.7276C54.8267 58.4571 54.7056 58.1821 54.589 57.9116C54.4052 57.4879 53.8178 57.5149 53.5308 57.7764C53.208 58.0694 53.0017 58.4211 52.8537 58.8268C53.2842 58.8268 53.7191 58.8268 54.1496 58.8268C54.0644 58.3985 53.9747 57.9702 53.8895 57.542C53.7236 56.6854 52.4233 57.046 52.5981 57.8981Z" fill="#727272"/>
<path d="M53.7774 68.2403C53.7371 68.5784 53.7774 68.9255 53.8671 69.2501C53.9792 69.6423 54.4904 69.9083 54.8536 69.6559C55.0912 69.4891 55.2347 69.3087 55.3378 69.0382C55.3647 68.9706 55.3872 68.8985 55.4096 68.8263C55.4499 68.6821 55.4096 68.8759 55.293 68.894C55.1719 68.894 55.0553 68.894 54.9343 68.894C54.8222 68.8489 54.7504 68.7813 54.7325 68.6821C54.7191 68.637 54.7235 68.6505 54.7504 68.7227C54.7639 68.7632 54.7773 68.8083 54.7908 68.8489C54.867 69.0563 54.9746 69.2231 55.145 69.3628C55.5127 69.6604 55.9297 69.6108 56.2884 69.3313C56.5754 69.1059 56.5216 68.6099 56.2884 68.3755C56.0059 68.0915 55.6248 68.1501 55.3378 68.3755C55.3244 68.389 55.3064 68.3981 55.293 68.4116C55.3916 68.353 55.4903 68.2944 55.5889 68.2358C55.571 68.2403 55.5531 68.2448 55.5351 68.2493C55.6562 68.2493 55.7728 68.2493 55.8938 68.2493C55.9746 68.2628 56.0911 68.5108 56.0418 68.362C56.0059 68.2448 55.9611 68.123 55.8983 68.0194C55.71 67.7128 55.3782 67.537 55.024 67.573C54.7101 67.6046 54.4545 67.803 54.2841 68.0644C54.2124 68.1771 54.163 68.3034 54.1227 68.4296C54.1092 68.4702 54.0823 68.5288 54.0778 68.5694C54.0734 68.628 54.0644 68.5558 54.1765 68.4792C54.5038 68.6145 54.8356 68.7497 55.163 68.8849C55.1002 68.664 55.0912 68.4657 55.1181 68.2358C55.1585 67.8706 54.7773 67.5595 54.4455 67.5595C54.0554 67.564 53.8223 67.8751 53.7774 68.2403Z" fill="#727272"/>
<path d="M53.4053 76.2019C53.3694 76.6437 53.4053 77.0765 53.4725 77.5138C53.5532 78.0233 54.2751 78.154 54.598 77.8114C54.7146 77.6897 54.8356 77.5679 54.9612 77.4552C55.0733 77.356 55.1899 77.2569 55.2796 77.1938C54.9522 77.0585 54.6204 76.9233 54.2931 76.788C54.3334 76.9052 54.3334 76.77 54.32 76.8962C54.329 76.8015 54.2662 76.9819 54.311 76.9052C54.1361 77.2253 54.2348 77.6446 54.5532 77.8294C54.8625 78.0098 55.2975 77.9106 55.4724 77.586C55.6652 77.2298 55.7279 76.8151 55.5934 76.4273C55.4634 76.0577 54.9791 75.7466 54.607 76.0216C54.2662 76.2741 53.9478 76.5446 53.6564 76.8511C54.033 76.9503 54.4052 77.0495 54.7818 77.1487C54.737 76.8556 54.737 76.513 54.7594 76.1929C54.7863 75.8413 54.4321 75.5031 54.0868 75.5167C53.6922 75.5437 53.4367 75.8232 53.4053 76.2019Z" fill="#727272"/>
<path d="M52.9748 85.0338C52.7327 85.444 52.5488 85.8948 52.4457 86.3637C52.365 86.7199 52.5533 87.094 52.9165 87.1977C53.2932 87.3014 53.616 87.0715 53.746 86.7244C53.7864 86.6117 53.9209 86.3682 53.9926 86.2735C53.6743 86.2735 53.3604 86.2735 53.0421 86.2735C52.9613 86.1744 52.9389 86.0662 52.9703 85.9399C52.912 86.3006 53.0645 86.6658 53.4411 86.774C53.764 86.8641 54.2079 86.6658 54.2707 86.3006C54.3334 85.9264 54.2662 85.5973 53.9971 85.3178C53.764 85.0743 53.2707 85.0337 53.0465 85.3178C52.7865 85.6424 52.5982 85.9715 52.4502 86.3637C52.8806 86.4854 53.3156 86.6026 53.746 86.7244C53.8312 86.3457 53.9433 86.0481 54.1406 85.719C54.3245 85.4034 54.2124 84.9751 53.8985 84.7948C53.5801 84.6055 53.1631 84.7182 52.9748 85.0338Z" fill="#727272"/>
<path d="M57.8982 87.7342C57.6202 88.0994 57.4901 88.5502 57.4677 89.0056C57.4543 89.2716 57.6471 89.5285 57.8802 89.6232C58.1448 89.7314 58.4004 89.6683 58.6156 89.4834C58.9474 89.1994 59.2792 88.9109 59.611 88.6269C59.2568 88.5818 58.9071 88.5367 58.5528 88.4916C58.5259 88.451 58.5394 88.3924 58.5439 88.3474C58.5483 88.3158 58.6201 88.2076 58.5483 88.3203C58.3555 88.6314 58.4811 89.0642 58.7905 89.2445C59.1133 89.4339 59.5169 89.3121 59.7097 89.0011C59.9384 88.6359 59.9339 88.1715 59.7142 87.8018C59.4765 87.4051 58.9878 87.3826 58.656 87.6666C58.3241 87.9506 57.9923 88.2392 57.6605 88.5232C58.0417 88.681 58.4273 88.8433 58.8084 89.0011C58.8174 88.7982 58.7725 89.0912 58.8174 88.8974C58.8353 88.8297 58.8533 88.7576 58.8757 88.69C58.8398 88.7847 58.9295 88.5953 58.9295 88.5908C58.9654 88.5277 59.0057 88.4691 59.0505 88.415C59.2703 88.1219 59.0954 87.6576 58.8084 87.4908C58.4721 87.2879 58.1224 87.4412 57.8982 87.7342Z" fill="#727272"/>
<path d="M60.3823 78.8799C60.2881 79.3938 60.2343 79.9123 60.2298 80.4398C60.2208 81.1025 61.158 81.373 61.4853 80.7824C61.6871 80.4127 61.9247 80.0926 62.2207 79.7951C61.9472 79.8311 61.6781 79.8672 61.4046 79.8988C61.3912 79.8897 61.3732 79.8762 61.3598 79.8672C61.3015 79.768 61.2432 79.6688 61.1849 79.5696C61.1714 79.5291 61.2163 79.4028 61.1714 79.5471C61.1401 79.6373 61.1221 79.7815 61.1176 79.8672C61.1087 80.0836 61.1714 80.2955 61.297 80.4713C61.4405 80.6652 61.6781 80.7959 61.9247 80.7959C62.0593 80.7959 62.2162 80.7553 62.3328 80.6922C62.3552 80.6787 62.3731 80.6697 62.3956 80.6562C62.5032 80.5885 62.4718 80.584 62.3014 80.6426C62.1893 80.6111 62.0772 80.5795 61.9606 80.5525C61.7813 80.4623 61.7678 80.3586 61.7857 80.2279C61.7364 80.5885 61.8754 80.9537 62.2566 81.0619C62.5704 81.1476 63.0323 80.9537 63.0861 80.5885C63.1399 80.2008 63.122 79.8086 62.826 79.5155C62.678 79.3713 62.4538 79.2856 62.2476 79.2901C62.1131 79.2946 61.9561 79.3397 61.8395 79.4028C61.8082 79.4209 61.6602 79.484 61.7454 79.466C61.8665 79.466 61.983 79.466 62.1041 79.466C62.0862 79.4614 62.0637 79.4524 62.0458 79.4479C62.1445 79.5065 62.2431 79.5651 62.3417 79.6237C62.3866 79.9979 62.4269 80.0926 62.4673 79.9078C62.4852 79.8627 62.4942 79.8176 62.5032 79.768C62.5256 79.6643 62.5346 79.5561 62.5256 79.4479C62.5077 79.1504 62.3552 78.8664 62.0817 78.7356C61.8126 78.6004 61.4898 78.6184 61.2656 78.8393C60.8934 79.2135 60.5751 79.6373 60.3195 80.0971C60.7365 80.2098 61.1535 80.3225 61.575 80.4398C61.5795 80.0385 61.6109 79.6373 61.6826 79.2405C61.7454 78.8799 61.584 78.5102 61.2118 78.4065C60.88 78.3163 60.445 78.5192 60.3823 78.8799Z" fill="#727272"/>
<path d="M61.288 69.5702C61.0952 70.0346 61.0907 70.5621 61.2387 71.0399C61.445 71.6982 62.3148 71.6666 62.5346 71.0399C62.6467 70.7153 62.8484 70.4584 63.104 70.233C62.7229 70.0752 62.3373 69.9129 61.9561 69.7551C61.9696 69.985 61.9875 70.2149 62.001 70.4403C62.0279 70.8371 62.2879 71.0715 62.6736 71.1166C62.8888 71.1436 63.0861 71.0715 63.2654 70.9543C63.3417 70.9047 63.4089 70.8461 63.4672 70.7785C63.4896 70.7469 63.5165 70.7199 63.539 70.6928C63.6197 70.6072 63.5524 70.6252 63.3327 70.7469C63.2206 70.7154 63.1085 70.6838 62.9919 70.6567C62.956 70.6162 62.9157 70.5756 62.8798 70.535C62.8484 70.4223 62.817 70.3096 62.7901 70.1924C62.7901 70.2104 62.7901 70.2284 62.7946 70.2465C62.826 70.1338 62.8574 70.0211 62.8843 69.9039C62.8753 69.9174 62.8664 69.9354 62.8574 69.9489C62.4 70.6928 63.5659 71.3736 64.0187 70.6297C64.2878 70.1924 64.0636 69.6243 63.5928 69.453C63.3461 69.3629 63.095 69.3809 62.8664 69.5071C62.7722 69.5567 62.6915 69.6288 62.6153 69.7055C62.5973 69.7235 62.5839 69.7461 62.5659 69.7641C62.4763 69.8543 62.5121 69.8543 62.6736 69.7641C62.8978 69.9895 63.122 70.2149 63.3461 70.4403C63.3327 70.2104 63.3148 69.9805 63.3013 69.7551C63.261 69.1555 62.6018 68.8805 62.1534 69.2772C61.723 69.6604 61.427 70.1383 61.2387 70.6793C61.6692 70.6793 62.1041 70.6793 62.5346 70.6793C62.4494 70.4043 62.4763 70.1924 62.5839 69.9309C62.7229 69.5928 62.4314 69.187 62.1131 69.0969C61.7274 68.9887 61.427 69.2321 61.288 69.5702Z" fill="#727272"/>
<path d="M60.7275 57.7178C60.7634 58.0965 60.8038 58.4797 60.8396 58.8584C60.871 59.192 61.0683 59.4805 61.4226 59.5211C61.7454 59.5617 62.0772 59.3678 62.1624 59.0387C62.2341 58.7502 62.3328 58.4887 62.4763 58.2317C62.0907 58.2317 61.7006 58.2317 61.3149 58.2317C61.3822 58.358 61.4495 58.4842 61.5122 58.6059C61.7588 59.0703 62.4135 59.0162 62.6736 58.6059C62.696 58.5698 62.7274 58.5383 62.7274 58.5248C62.7991 58.4616 62.7498 58.4662 62.5884 58.5383C62.5166 58.5789 62.4449 58.5879 62.3731 58.5744C62.2924 58.4932 62.2117 58.4121 62.131 58.3309C62.1265 58.3129 62.122 58.2948 62.1176 58.2768C62.3776 59.1018 63.678 58.7502 63.4134 57.9161C63.2789 57.4924 62.9112 57.2264 62.4628 57.2399C62.0279 57.2534 61.723 57.578 61.5077 57.9206C61.8934 57.9206 62.2835 57.9206 62.6691 57.9206C62.6018 57.7944 62.5346 57.6682 62.4718 57.5465C62.2386 57.1046 61.5481 57.1091 61.3105 57.5465C61.1176 57.9026 60.9652 58.2813 60.8621 58.678C61.3015 58.7367 61.7409 58.7998 62.1848 58.8584C62.149 58.4797 62.1086 58.0965 62.0727 57.7178C62.0369 57.3526 61.7902 57.0415 61.4001 57.0415C61.0638 57.0415 60.6917 57.3526 60.7275 57.7178Z" fill="#727272"/>
<path d="M57.396 50.1574C57.5664 50.5902 57.7771 50.9508 58.073 51.3115C58.4138 51.7263 59.055 51.4558 59.1985 51.0139C59.3016 50.6893 59.3465 50.3377 59.3151 49.9996C58.8981 50.1123 58.4811 50.225 58.0596 50.3422C58.1896 50.5947 58.3735 50.8246 58.5932 51.0049C58.8757 51.2349 59.2702 51.2799 59.5438 51.0049C59.7814 50.766 59.8263 50.2791 59.5438 50.0492C59.4631 49.9861 59.3868 49.9139 59.3241 49.8373C59.2568 49.7516 59.3644 49.9049 59.3061 49.8102C59.2747 49.7606 59.2478 49.711 59.2209 49.6615C59.0819 49.391 58.7367 49.2692 58.4587 49.3459C58.1941 49.418 57.9385 49.7065 57.9654 49.9996C57.9923 50.2836 57.9834 50.3963 57.8982 50.6533C58.2748 50.5541 58.647 50.4549 59.0236 50.3557C58.9653 50.2881 58.907 50.2025 58.8398 50.0852C58.8084 50.0311 58.777 49.9725 58.7456 49.9184C58.7367 49.9049 58.6649 49.7336 58.6873 49.8012C58.5528 49.4631 58.2389 49.2241 57.8578 49.3278C57.5439 49.4135 57.2614 49.8147 57.396 50.1574Z" fill="#727272"/>
<path d="M64.1891 49.6344C64.2429 49.9185 64.3506 50.1935 64.4985 50.4459C64.651 50.7029 64.9693 50.8382 65.2563 50.757C65.5612 50.6714 65.7226 50.4054 65.7495 50.1033C65.7809 49.7877 65.8123 49.4676 65.8437 49.1521C65.5074 49.3459 65.1711 49.5398 64.8303 49.7381C65.0366 49.8914 65.2429 50.0492 65.4491 50.2025C65.7406 50.4189 66.2024 50.2521 66.3683 49.959C66.5701 49.6164 66.4177 49.2512 66.1262 49.0348C65.9199 48.8816 65.7137 48.7238 65.5074 48.5705C65.3191 48.4307 65.0187 48.4578 64.8303 48.5705C64.6106 48.7012 64.5209 48.9086 64.4985 49.1566C64.4671 49.4721 64.4358 49.7922 64.4044 50.1078C64.8214 49.9951 65.2384 49.8824 65.6599 49.7652C65.5523 49.5848 65.5254 49.4992 65.485 49.2783C65.4177 48.9176 64.9873 48.7147 64.6555 48.8049C64.2878 48.9041 64.1264 49.2738 64.1891 49.6344Z" fill="#727272"/>
<path d="M67.1754 57.7494C67.2382 58.1236 67.3279 58.4842 67.449 58.8449C67.588 59.2732 68.0363 59.4535 68.4354 59.2506C68.682 59.1244 68.839 58.89 68.9017 58.624C68.9331 58.5023 68.9376 58.3715 68.9466 58.2408C68.9466 58.1957 68.9511 58.1506 68.9556 58.1055C68.9466 58.2949 68.821 58.4166 68.5744 58.4797C68.4623 58.4482 68.3502 58.4166 68.2336 58.3895C68.7627 58.651 69.1753 58.8269 69.7806 58.6916C70.6236 58.5023 70.2693 57.1948 69.4219 57.3887C69.2111 57.4383 69.0901 57.3121 68.9107 57.2219C68.5968 57.0686 68.2381 57.0911 67.9646 57.3075C67.7583 57.4698 67.6642 57.6953 67.6283 57.9522C67.6149 58.0514 67.6104 58.1461 67.6014 58.2453C67.5924 58.3309 67.5969 58.3354 67.6059 58.2678C67.561 58.4211 67.6104 58.358 67.7583 58.0875C68.0857 58.2227 68.4175 58.358 68.7448 58.4932C68.6282 58.1326 68.5385 57.7719 68.4713 57.3977C68.4085 57.0371 67.9691 56.8342 67.6418 56.9243C67.2651 57.019 67.1127 57.3887 67.1754 57.7494Z" fill="#727272"/>
<path d="M68.7403 67.5324C68.6955 67.8751 68.6462 68.2177 68.6013 68.5603C68.561 68.8624 68.6282 69.1599 68.9107 69.3222C69.1439 69.462 69.5474 69.4485 69.7268 69.2185C69.8254 69.0878 69.9241 68.9796 70.081 68.9255C69.7985 68.7091 69.5116 68.4927 69.2291 68.2718C69.238 68.5423 69.2425 68.8128 69.2515 69.0833C69.2649 69.5341 69.6685 69.8407 70.1034 69.737C70.3187 69.6874 70.498 69.5792 70.6684 69.444L70.8343 69.3132C70.8209 69.2952 70.6056 69.3087 70.5563 69.2546C70.498 69.1554 70.4397 69.0562 70.3814 68.9571C70.3904 68.9796 70.3949 69.0021 70.4039 69.0247C70.6864 69.8407 71.9867 69.489 71.6997 68.664C71.5428 68.2177 71.1841 67.9652 70.7088 67.9788C70.516 67.9833 70.3142 68.0464 70.1483 68.1456C70.0138 68.2267 69.8882 68.3935 69.7358 68.4296C70.0183 68.646 70.3052 68.8624 70.5877 69.0833C70.5787 68.8128 70.5743 68.5423 70.5653 68.2718C70.5563 67.857 70.1393 67.4738 69.7133 67.6181C69.3412 67.7488 69.0094 67.9472 68.7672 68.2628C69.1439 68.4837 69.516 68.7001 69.8927 68.921C69.9375 68.5784 69.9869 68.2357 70.0317 67.8931C70.081 67.5324 69.9465 67.1673 69.5609 67.0591C69.256 66.9734 68.7896 67.1673 68.7403 67.5324Z" fill="#727272"/>
<path d="M66.8078 78.731C66.7136 79.1142 66.6194 79.4974 66.5297 79.8806C66.4446 80.2323 66.6374 80.62 67.0006 80.7147C67.3234 80.8003 67.6328 80.7372 67.8973 80.5253C68.1081 80.354 68.1843 80.088 68.3771 79.9212C68.2785 79.9798 68.1798 80.0384 68.0812 80.097C68.1126 80.0835 68.144 80.07 68.1798 80.0565C68.0588 80.0565 67.9422 80.0565 67.8211 80.0565C67.8525 80.061 67.8839 80.07 67.9198 80.0745C67.7852 79.9708 67.6507 79.8671 67.5162 79.7634C67.5072 79.7093 67.5117 79.7228 67.5252 79.813C67.5566 79.8896 67.588 79.9663 67.6238 80.0429C67.7135 80.1917 67.8525 80.2954 68.005 80.363C68.1664 80.4352 68.3457 80.4442 68.5206 80.4081C68.5789 80.4036 68.6372 80.3856 68.691 80.363C68.9556 80.2774 68.9017 80.2503 68.5296 80.2864C68.4489 80.2052 68.3682 80.1241 68.2874 80.0429C68.2964 80.0565 68.3099 80.0745 68.3188 80.088C68.2874 79.9753 68.2561 79.8626 68.2292 79.7454C68.2292 79.7634 68.2292 79.786 68.2247 79.804C68.1843 80.6741 69.5295 80.6741 69.5698 79.804C69.5878 79.4343 69.3367 79.1232 68.9914 79.015C68.83 78.9654 68.6506 78.9609 68.4847 79.0015C68.4265 79.015 68.1978 79.0601 68.265 79.0691C68.3771 79.1007 68.4892 79.1323 68.6058 79.1593C68.5834 79.1458 68.5654 79.1277 68.543 79.1142C68.6237 79.1954 68.7045 79.2765 68.7852 79.3577C68.7538 79.2945 68.682 79.0556 68.5699 78.9384C68.3906 78.7581 68.0632 78.6769 67.8211 78.7445C67.6238 78.7986 67.4534 78.9159 67.3189 79.0646C67.2472 79.1458 67.1844 79.2359 67.1306 79.3306C67.1127 79.3622 67.0992 79.3937 67.0813 79.4208C66.9557 79.5921 67.0499 79.5876 67.3638 79.4027C67.5207 79.6823 67.6776 79.9573 67.8346 80.2368C67.9287 79.8536 68.0229 79.4704 68.1126 79.0872C68.3099 78.2441 67.014 77.8834 66.8078 78.731Z" fill="#727272"/>
<path d="M65.3819 86.864C65.4805 86.9407 65.5791 87.0173 65.6778 87.094C65.9648 87.3194 66.4311 87.139 66.597 86.8505C66.7988 86.5034 66.6463 86.1472 66.3549 85.9263C66.2562 85.8497 66.1576 85.773 66.0589 85.6964C65.772 85.471 65.3056 85.6513 65.1397 85.9398C64.9379 86.287 65.0949 86.6386 65.3819 86.864Z" fill="#727272"/>
<path d="M35.2992 44.7374C35.8584 40.1054 32.6253 36.647 29.1803 33.9798C27.1737 32.4239 25.2122 31.1259 23.9046 28.8988C23.2372 27.7564 22.5969 26.4672 22.2226 25.2003C21.4922 22.7332 22.7547 18.8569 25.8796 21.7019C27.6787 23.3422 28.0936 25.4581 29.4689 27.2807C30.2444 28.312 31.4349 28.8632 32.6749 28.2053C36.404 26.2316 33.5181 19.3858 32.6839 16.6653C31.6739 13.3714 31.1418 10.2019 32.8417 7.03235C33.4009 5.99215 34.0276 4.92083 34.7446 3.98287C35.209 3.37831 35.7997 2.72485 36.4626 2.30699C37.8334 1.43571 38.6586 1.43571 40.1736 1.89802C41.7879 2.39145 41.8014 2.47591 42.1306 4.0051C42.2839 4.7119 42.347 5.48983 42.3831 6.21886C42.4598 7.76138 42.3335 9.31724 42.0134 10.8331C41.4137 13.7092 39.6866 16.2519 39.3079 19.1725C39.0283 21.3196 39.2222 28.1431 42.8115 27.503C47.0185 26.7517 46.7164 20.0927 50.91 19.2036C54.4 18.4612 56.1045 22.2442 54.6255 24.8402C53.8229 26.2538 52.4882 27.3474 51.2031 28.312C48.9124 30.0323 46.1122 30.9303 43.8621 32.6684C39.7904 35.8246 41.1431 40.7855 42.816 44.853C43.1407 45.6398 44.4483 45.2931 44.1192 44.4974C42.9919 41.7546 41.576 38.3984 43.1001 35.5179C44.5114 32.8507 48.236 31.9172 50.6394 30.3435C53.886 28.2187 58.544 24.2179 55.7934 20.0082C53.4937 16.4831 49.0387 17.6611 46.9374 20.6128C46.3016 21.5063 45.8101 22.4887 45.2464 23.4266C44.9894 23.8534 44.7324 24.2846 44.4303 24.6846C44.2138 24.9425 43.9974 25.1959 43.781 25.4537C42.072 25.8271 41.1882 25.3781 41.1296 24.0979C39.4161 20.5061 41.4903 16.8254 42.6537 13.5136C43.5194 11.0509 43.8892 8.42818 43.7043 5.82767C43.5781 4.02733 43.3887 1.5913 41.6707 0.515535C40.1601 -0.431314 37.8379 0.111013 36.3544 0.848933C34.1449 1.95137 32.7921 4.2896 31.6739 6.37C28.8015 11.7133 31.7009 16.4208 32.7696 21.8041C32.9094 22.5198 33.2656 24.089 33.0266 24.8847C32.2961 25.5426 31.5656 26.1961 30.8306 26.854C30.4113 26.325 30.0956 25.7471 29.8747 25.1114C29.4508 24.1823 29.0044 23.3155 28.3867 22.4887C27.4127 21.1817 25.573 19.0347 23.6926 19.1414C21.8664 19.248 20.7932 21.1506 20.5993 22.7376C20.3108 25.0847 21.5868 27.5874 22.7412 29.5789C25.9427 35.0955 34.8663 37.1271 33.9465 44.7463C33.8473 45.5865 35.2 45.582 35.2992 44.7374Z" fill="#46A358"/>
<path d="M46.987 22.5731C47.961 17.7055 46.1212 13.2558 45.7379 8.45038C45.508 5.57872 46.748 0.986717 50.689 2.29364C53.6245 3.26716 54.7382 6.71671 54.5398 9.47725C54.3955 11.4954 53.4125 17.4166 57.3535 16.8653C60.7354 16.3941 62.4805 10.8375 64.1218 8.4815C65.5287 6.46333 68.6355 3.5161 71.368 4.33848C75.6968 5.64095 72.9237 10.7619 70.9306 12.7757C67.5713 16.1674 63.991 19.168 61.0285 22.9465C59.3105 25.138 57.8225 28.7387 61.6327 29.7212C63.0982 30.099 64.5096 29.5967 65.8308 29.001C66.8949 28.5209 67.9095 27.9475 69.0413 27.6319C71.1065 27.054 73.5009 27.5074 72.1346 30.0368C68.9376 35.9624 61.6192 31.5926 56.8981 34.0776C52.894 36.1891 51.9606 40.8566 52.3394 44.9508C52.416 45.7998 53.7733 45.8087 53.6921 44.9508C53.4261 42.0969 53.656 39.0118 55.6581 36.7492C58.2464 33.8242 61.7004 34.891 65.1273 34.8244C68.6265 34.7577 73.1311 33.0862 73.8571 29.2322C74.6507 25.0091 69.7718 25.8271 67.2692 26.845C66.1645 27.294 65.1319 27.9919 63.9775 28.3209C63.0622 28.5832 61.6147 28.7254 60.8932 27.8764C60.1943 27.0495 60.758 25.6581 61.1908 24.9558C62.7736 22.3775 65.1995 20.0259 67.3549 17.9055C70.3264 14.9805 75.3947 11.8777 74.9573 7.1079C74.6237 3.45831 71.2057 2.12027 68.0538 3.48942C66.1599 4.3118 64.5953 5.61872 63.3598 7.25015C61.7455 9.37945 60.8842 12.3045 58.9588 14.1804C58.2644 14.8561 57.5835 16.2919 56.0324 14.8827C55.3425 14.2559 55.5499 12.5845 55.622 11.7266C55.7167 10.6019 55.9602 9.50392 55.9241 8.37037C55.8655 6.45444 55.2207 4.51184 53.9627 3.02711C51.3023 -0.102382 46.7345 0.0354228 44.9669 3.96063C43.9117 6.30775 44.3762 8.99271 44.8181 11.4287C45.4674 15.025 46.4188 18.5546 45.6838 22.2175C45.517 23.0576 46.8201 23.4177 46.987 22.5731Z" fill="#46A358"/>
<path d="M46.6849 31.0058C46.0491 35.5889 45.0075 40.0787 43.5555 44.4796C43.285 45.2975 44.5926 45.6487 44.8587 44.8352C46.3106 40.4343 47.3522 35.9446 47.988 31.3615C48.1053 30.5169 46.8021 30.1568 46.6849 31.0058Z" fill="#46A358"/>
<path d="M30.506 43.9729C30.3301 40.4433 27.8456 38.0606 24.9868 36.2469C23.1335 35.0689 21.1044 34.0865 19.5126 32.5529C18.8272 31.895 17.5511 30.6192 17.4835 29.5967C17.2535 26.1872 21.4786 28.841 22.4165 29.6279C23.0749 30.1835 24.0353 29.2411 23.3725 28.6854C21.898 27.4452 19.2511 25.8316 17.2265 26.7651C15.5942 27.5163 15.8647 29.3789 16.4915 30.7214C19.1294 36.4247 28.806 37.0782 29.1532 43.9729C29.1938 44.8263 30.5511 44.8308 30.506 43.9729Z" fill="#46A358"/>
<path d="M60.8391 45.2931C62.5256 42.7859 64.7486 40.7366 67.4721 39.3586C69.9522 38.105 73.0274 37.8872 75.2234 36.1135C77.744 34.0776 77.8748 29.0855 73.7038 29.2144C72.8335 29.2411 72.8335 30.5747 73.7038 30.548C75.3496 30.7703 76.017 31.6682 75.7149 33.2374C75.3767 34.1398 74.804 34.8511 73.9969 35.3667C73.0094 36.0557 71.8099 36.3714 70.6736 36.727C69.2262 37.1804 67.8148 37.656 66.4756 38.3673C63.6889 39.852 61.4118 42.0302 59.6668 44.6218C59.1843 45.3375 60.3567 46.0043 60.8391 45.2931Z" fill="#46A358"/>
<path d="M64.5141 33.5619C58.783 34.6287 56.6682 40.252 55.3109 45.173C55.0809 46.0043 56.3886 46.3554 56.614 45.5286C57.8496 41.0522 59.6307 35.8245 64.8748 34.851C65.7271 34.6865 65.3663 33.4018 64.5141 33.5619Z" fill="#46A358"/>
<path d="M34.2937 13.2647C33.6218 10.6019 34.4605 7.68581 36.6339 5.8988C37.0713 5.52095 37.5673 5.232 38.1129 5.03197C39.6145 5.34758 40.3134 6.13885 40.2097 7.40576C40.2368 8.14368 40.0925 8.87271 39.9166 9.58396C39.5604 11.0198 38.9336 12.3845 38.4692 13.7892C37.2742 17.4077 35.5562 23.3244 38.7848 26.405C39.0959 26.7028 39.5784 26.2316 39.2628 25.9338C36.431 23.2355 37.883 18.0478 38.8524 14.8161C39.6912 12.0155 41.9683 8.29482 40.4307 5.35203C39.2312 3.05825 36.4806 4.92083 35.3128 6.26331C33.5857 8.25037 33.0041 10.922 33.6399 13.4425C33.7481 13.8603 34.3974 13.6825 34.2937 13.2647Z" fill="#46A358"/>
<path d="M48.5877 24.0623C48.9755 23.2132 49.7601 22.013 50.8108 21.8707C52.4115 21.6529 53.2367 23.6355 52.38 24.9469C51.5728 26.1827 50.0352 27.0451 48.7095 27.574C46.5045 28.4498 45.0255 29.6589 43.4247 31.3881C43.1316 31.7037 43.6096 32.1794 43.9027 31.8593C44.8722 30.8058 45.8642 29.7122 47.1268 28.9832C48.1323 28.4009 49.3002 28.1742 50.3102 27.6052C51.5412 26.9073 53.5343 25.4003 53.6786 23.88C53.7958 22.6531 52.4837 21.2306 51.2572 21.155C49.7782 21.0617 48.5426 22.5553 48.0061 23.7289C47.8257 24.1112 48.4119 24.4534 48.5877 24.0623Z" fill="#46A358"/>
<path d="M23.3003 24.8359C23.4491 23.6667 23.8955 23.2355 24.635 23.5512C24.8966 23.5556 25.113 23.649 25.2934 23.8312C25.6496 24.0624 25.8841 24.4047 26.096 24.7647C26.4748 25.4093 26.6506 26.1606 26.9302 26.8451C27.2864 27.7253 27.7554 28.441 28.5625 28.9655C28.9278 29.2056 29.266 28.6277 28.9052 28.3877C26.9212 27.0896 27.4758 23.7201 24.9958 22.9021C23.5077 22.4132 22.0107 23.6845 22.7186 25.1693C22.9035 25.5604 23.4852 25.2226 23.3003 24.8359Z" fill="#46A358"/>
<path d="M47.5326 7.58361C47.1809 5.66324 49.2326 4.13405 50.8017 5.53433C51.6675 6.30781 52.0012 7.7303 52.0057 8.84163C52.0147 10.3486 51.3158 11.6955 51.6134 13.2069C51.6946 13.6292 52.3484 13.4514 52.2672 13.0291C51.893 11.131 52.9661 9.31283 52.4837 7.34356C52.1951 6.16556 51.6089 4.85419 50.3734 4.40966C48.1458 3.61395 46.509 5.73881 46.8788 7.75698C46.9599 8.17928 47.6093 8.00147 47.5326 7.58361Z" fill="#46A358"/>
<path d="M47.1944 11.9799C48.2946 14.2604 48.8357 16.2607 48.7546 18.7901C48.741 19.2213 49.4174 19.2169 49.431 18.7901C49.5166 16.1318 48.9304 14.0292 47.7806 11.6465C47.5912 11.2598 47.0095 11.5976 47.1944 11.9799Z" fill="#46A358"/>
<path d="M64.7351 10.073C65.3889 8.60157 66.6244 7.6725 68.0538 6.97459C68.4641 6.76121 68.888 6.58784 69.3299 6.45004C71.2373 7.09016 71.7198 7.97478 70.7774 9.11278C70.3264 9.81069 69.6726 10.4375 69.109 11.0509C66.9626 13.3847 64.6449 15.5451 62.1964 17.5633C61.8627 17.8389 62.3407 18.3101 62.6744 18.0345C64.8884 16.2119 66.9942 14.2738 68.9602 12.1934C70.1416 10.9442 72.4097 9.09055 71.9137 7.11684C70.9262 3.20497 64.9786 7.86809 64.1489 9.73956C63.9775 10.1263 64.5637 10.4641 64.7351 10.073Z" fill="#46A358"/>
<path d="M60.9158 19.9859C58.7559 21.5507 57.4437 23.8311 57.1957 26.4583C57.1551 26.885 57.8315 26.8806 57.8721 26.4583C58.0976 24.0845 59.306 21.973 61.2585 20.5594C61.6057 20.3104 61.2675 19.7281 60.9158 19.9859Z" fill="#46A358"/>
<path d="M65.195 31.1081C65.6369 30.8459 66.0788 30.5702 66.5432 30.3435C66.895 30.1524 67.2647 30.0057 67.6525 29.9035C68.3785 29.6056 68.622 30.1613 68.3785 31.5704C67.9005 32.4995 65.3122 32.5351 64.5096 32.4862C62.503 32.3706 60.6137 31.8283 58.6342 32.4284C58.2193 32.5529 58.3952 33.1974 58.8145 33.073C61.1909 32.3484 63.5041 33.4019 65.9029 33.1396C67.2061 32.9929 69.0503 32.4017 69.6997 31.157C70.0604 30.4636 69.9747 29.5478 69.1856 29.17C67.8915 28.5521 65.8714 29.9212 64.8523 30.5302C64.4825 30.757 64.8207 31.3348 65.195 31.1081Z" fill="#46A358"/>
<path d="M55.1395 33.5886C51.6224 36.4024 50.3418 40.6699 49.9856 44.973C49.9495 45.3997 50.6259 45.3997 50.6619 44.973C51.0046 40.8344 52.2356 36.7625 55.6175 34.0598C55.9557 33.7886 55.4732 33.3218 55.1395 33.5886Z" fill="#46A358"/>
<path d="M40.0023 34.7221C38.9562 36.5091 38.9877 38.4562 39.2177 40.4566C39.4116 42.1369 39.6325 43.7861 40.8094 45.093C41.098 45.4131 41.576 44.9419 41.2874 44.6218C40.133 43.3416 39.9888 41.5635 39.8354 39.9276C39.6731 38.225 39.6957 36.5758 40.5885 35.0555C40.8049 34.6866 40.2232 34.3532 40.0023 34.7221Z" fill="#46A358"/>
<path d="M21.3434 30.3302C19.3864 30.3569 20.162 32.3884 21.2081 33.1174C22.5157 34.0287 24.0038 34.6377 25.3926 35.4068C27.0294 36.3136 27.6878 37.8428 28.9458 39.1186C29.2479 39.4253 29.7259 38.9541 29.4238 38.6474C28.1747 37.3805 27.5705 35.8646 25.9607 34.9578C25.1491 34.4999 24.2969 34.1132 23.4807 33.6731C23.0568 33.4464 22.633 33.2197 22.2272 32.9663C22.0648 32.8685 21.898 32.7662 21.7357 32.6684C20.9285 32.3662 20.8023 31.8105 21.3479 31.0015C21.7762 30.9926 21.7762 30.3258 21.3434 30.3302Z" fill="#46A358"/>
<path d="M72.2383 33.4019C72.2609 34.291 71.846 34.7755 70.9848 34.86C70.5699 35.0245 70.1596 35.1845 69.7448 35.349C69.127 35.5935 68.5047 35.838 67.887 36.0825C66.444 36.6515 64.9966 37.2249 63.5537 37.7939C63.1523 37.9495 63.3282 38.5985 63.734 38.4385C65.3844 37.785 67.0347 37.136 68.6851 36.4825C69.9071 35.998 71.4673 35.6513 72.554 34.8956C73.4964 34.2377 73.5234 32.8729 72.2338 32.7351C71.8054 32.6862 71.8099 33.3575 72.2383 33.4019Z" fill="#46A358"/>
<path d="M62.0025 38.7184C60.1898 40.4076 58.7604 42.3902 57.7504 44.6396C57.5745 45.0263 58.1562 45.3686 58.3366 44.9774C59.3241 42.7814 60.7084 40.8433 62.485 39.1941C62.7961 38.8962 62.3181 38.425 62.0025 38.7184Z" fill="#46A358"/>
<path d="M30.5511 41.6346C31.0696 42.3903 31.4033 43.2038 31.5611 44.1017C31.6333 44.524 32.2871 44.3462 32.215 43.9239C32.0481 42.9771 31.6829 42.0925 31.1373 41.2967C30.8938 40.9456 30.3076 41.279 30.5511 41.6346Z" fill="#46A358"/>
</svg>
